<svg id="svg" version="1.1" xmlns="http://www.w3.org/2000/svg" xmlns:xlink="http://www.w3.org/1999/xlink" width="400" height="400" viewBox="0, 0, 400,400"><g id="svgg"><path id="path0" d="M110.353 72.150 C 106.877 73.397,103.703 76.308,101.725 80.064 L 100.600 82.200 100.600 195.608 L 100.600 309.017 101.904 311.665 C 103.419 314.743,105.375 316.653,108.888 318.488 L 111.400 319.800 133.000 319.800 L 154.600 319.800 157.376 318.486 C 160.519 316.997,162.457 315.150,164.200 311.981 L 165.400 309.800 165.504 223.100 L 165.607 136.400 193.837 136.400 C 210.516 136.400,222.012 136.548,221.933 136.762 C 221.860 136.961,211.090 151.088,198.000 168.156 C 184.910 185.223,173.570 200.315,172.800 201.694 C 170.721 205.415,170.677 212.468,172.709 216.212 C 174.448 219.417,243.194 309.007,246.680 312.612 C 253.599 319.766,255.132 320.051,285.913 319.912 L 310.600 319.800 313.107 318.440 C 318.558 315.485,320.600 311.822,320.600 305.000 C 320.600 298.334,322.502 301.154,285.041 252.255 C 266.868 228.533,252.001 209.006,252.002 208.862 C 252.003 208.718,262.179 195.280,274.616 179.000 C 292.839 155.146,297.594 148.670,299.114 145.638 L 301.000 141.875 301.000 111.838 L 301.000 81.800 299.640 79.293 C 298.076 76.408,296.123 74.499,293.114 72.914 L 291.000 71.800 201.400 71.716 C 128.820 71.647,111.525 71.730,110.353 72.150 M288.042 84.780 L 289.222 85.961 289.111 112.080 L 289.000 138.200 288.000 140.041 C 287.450 141.053,275.570 156.863,261.600 175.173 C 247.630 193.483,236.219 208.686,236.243 208.957 C 236.267 209.228,252.486 230.592,272.287 256.432 C 309.647 305.188,309.119 304.462,308.360 306.127 C 307.498 308.019,307.132 308.046,283.961 307.919 L 262.182 307.800 259.534 306.496 C 258.078 305.779,256.280 304.519,255.539 303.696 C 252.915 300.781,183.977 210.792,183.592 209.779 C 183.039 208.324,181.070 211.016,215.700 165.889 C 233.025 143.312,247.200 124.742,247.200 124.620 C 247.200 124.499,226.140 124.400,200.400 124.400 L 153.600 124.400 153.600 215.018 L 153.600 305.636 152.645 306.592 C 151.234 308.002,150.509 308.049,131.909 307.919 L 114.818 307.800 113.709 306.691 L 112.600 305.582 112.498 196.356 C 112.387 77.309,112.245 85.179,114.521 84.079 C 115.132 83.784,141.528 83.646,201.131 83.627 L 286.862 83.600 288.042 84.780 " stroke="none" fill="#fbfcfb" fill-rule="evenodd"></path><path id="path1" d="M386.100 128.288 C 385.825 128.386,385.600 128.716,385.600 129.021 C 385.600 129.373,385.358 129.482,384.934 129.319 C 384.492 129.150,384.364 129.218,384.553 129.524 C 384.915 130.110,384.085 131.700,383.580 131.388 C 383.371 131.258,383.200 130.973,383.200 130.753 C 383.200 130.533,383.368 130.456,383.572 130.583 C 383.777 130.709,384.048 130.646,384.174 130.442 C 384.301 130.237,384.088 130.118,383.702 130.177 C 383.230 130.249,383.013 130.619,383.040 131.306 C 383.066 131.958,382.903 132.261,382.593 132.142 C 382.325 132.039,382.005 132.338,381.882 132.807 C 381.760 133.276,381.286 133.757,380.830 133.876 C 380.373 133.996,380.000 134.247,380.000 134.434 C 380.000 134.622,380.315 134.674,380.700 134.550 C 381.253 134.372,381.282 134.408,380.838 134.724 C 380.528 134.944,379.831 135.044,379.288 134.945 C 378.516 134.805,378.354 134.904,378.544 135.399 C 378.699 135.803,378.510 136.133,378.017 136.315 C 377.270 136.592,377.200 136.706,377.200 137.643 C 377.200 137.886,376.921 137.978,376.579 137.847 C 376.238 137.716,376.058 137.771,376.181 137.968 C 376.482 138.457,376.011 139.600,375.508 139.600 C 375.285 139.600,375.349 139.301,375.651 138.935 C 376.146 138.334,376.116 138.314,375.347 138.723 C 374.318 139.271,373.868 140.271,374.479 140.649 C 374.767 140.827,374.810 140.739,374.600 140.400 C 374.384 140.051,374.433 139.973,374.745 140.166 C 375.002 140.325,375.108 140.626,374.979 140.834 C 374.850 141.043,374.577 141.109,374.372 140.983 C 374.168 140.856,373.987 140.988,373.972 141.276 C 373.956 141.564,373.796 141.440,373.616 141.000 C 373.308 140.248,373.263 140.264,372.869 141.261 C 372.638 141.845,372.213 142.464,371.925 142.638 C 371.531 142.875,371.539 142.783,371.957 142.268 C 372.443 141.668,372.431 141.613,371.857 141.834 C 371.495 141.972,371.200 142.347,371.200 142.666 C 371.200 142.986,371.020 143.136,370.800 143.000 C 370.580 142.864,370.400 143.044,370.400 143.400 C 370.400 143.756,370.232 143.943,370.026 143.816 C 369.799 143.676,369.780 144.021,369.977 144.692 C 374.316 159.458,375.464 164.713,377.252 178.000 C 378.767 189.263,378.728 212.426,377.177 222.800 C 376.963 224.230,376.600 226.660,376.370 228.200 C 376.140 229.740,375.517 233.160,374.987 235.800 C 374.082 240.301,373.647 242.110,372.224 247.300 C 352.488 319.293,289.464 371.679,215.000 377.985 C 199.492 379.299,176.217 377.854,162.600 374.733 C 158.099 373.701,150.084 371.621,148.391 371.045 C 145.753 370.148,143.160 369.868,144.124 370.585 C 144.540 370.895,144.679 371.227,144.452 371.368 C 144.234 371.503,143.952 371.446,143.826 371.242 C 143.532 370.767,142.346 370.928,142.477 371.425 C 142.532 371.631,142.852 371.750,143.188 371.688 C 143.525 371.627,143.305 371.893,142.700 372.281 C 142.095 372.668,141.600 373.184,141.600 373.426 C 141.600 373.668,141.347 373.867,141.038 373.867 C 140.703 373.867,140.569 373.624,140.706 373.268 C 140.856 372.878,140.772 372.770,140.468 372.958 C 140.211 373.117,140.000 373.575,140.000 373.975 C 140.000 374.836,139.000 375.771,138.446 375.428 C 138.217 375.287,138.117 375.660,138.202 376.333 C 138.334 377.375,138.253 377.461,137.314 377.281 C 136.604 377.146,136.370 377.227,136.564 377.542 C 136.721 377.796,136.614 378.003,136.324 378.006 C 135.900 378.011,135.902 378.077,136.334 378.350 C 136.760 378.621,136.735 378.739,136.208 378.942 C 135.809 379.095,135.668 379.393,135.851 379.697 C 136.081 380.080,136.000 380.076,135.513 379.681 C 134.971 379.242,134.774 379.301,134.236 380.070 C 133.886 380.569,133.582 380.803,133.560 380.589 C 133.538 380.375,133.397 380.643,133.246 381.185 C 133.094 381.727,132.617 382.267,132.185 382.385 C 131.753 382.503,131.400 382.868,131.400 383.195 C 131.400 383.522,130.905 384.026,130.300 384.316 C 129.603 384.650,129.195 385.166,129.187 385.722 C 129.175 386.565,129.152 386.570,128.609 385.853 C 128.065 385.135,128.045 385.139,128.107 385.957 C 128.150 386.531,128.568 386.932,129.385 387.182 C 130.053 387.388,132.130 388.116,134.000 388.801 C 142.078 391.760,154.231 394.971,163.496 396.593 C 172.785 398.219,173.528 398.329,178.400 398.801 C 180.930 399.047,184.651 399.417,186.668 399.624 C 191.534 400.123,208.510 400.104,213.686 399.595 C 215.949 399.372,219.780 399.002,222.200 398.772 C 226.870 398.329,228.205 398.135,235.800 396.793 C 267.812 391.134,298.866 377.031,324.600 356.464 C 359.094 328.896,383.502 291.073,393.947 249.000 C 401.120 220.105,401.949 192.971,396.562 163.400 C 394.770 153.564,391.866 142.400,389.122 134.800 C 386.906 128.661,386.737 128.203,386.668 128.156 C 386.631 128.130,386.375 128.190,386.100 128.288 " stroke="none" fill="#0db746" fill-rule="evenodd"></path><path id="path2" d="M113.300 239.865 C 112.906 240.024,112.800 246.987,112.800 272.798 L 112.800 305.529 114.031 306.564 L 115.261 307.600 133.177 307.600 C 150.696 307.600,151.115 307.582,152.146 306.771 L 153.200 305.942 153.200 273.195 C 153.200 240.487,153.151 239.279,151.869 240.343 C 151.573 240.589,151.145 240.613,150.806 240.404 C 150.494 240.211,150.095 240.142,149.919 240.250 C 149.744 240.358,149.594 240.212,149.587 239.924 C 149.579 239.570,149.405 239.623,149.054 240.085 C 148.571 240.721,148.468 240.723,147.601 240.116 C 147.087 239.756,146.786 239.654,146.931 239.888 C 147.094 240.151,146.813 240.293,146.198 240.258 C 145.649 240.226,145.200 240.043,145.200 239.851 C 145.200 239.659,144.939 239.719,144.619 239.984 C 143.901 240.580,142.056 240.814,141.767 240.346 C 141.443 239.823,140.094 239.932,139.865 240.500 C 139.744 240.799,139.650 240.718,139.632 240.300 C 139.595 239.484,139.159 239.401,138.480 240.080 C 138.216 240.344,138.000 240.428,138.000 240.266 C 138.000 240.104,137.640 240.165,137.200 240.400 C 136.613 240.714,136.400 240.704,136.400 240.363 C 136.400 240.032,135.473 239.951,133.200 240.082 C 131.440 240.184,130.000 240.157,130.000 240.021 C 130.000 239.885,129.550 239.737,129.000 239.692 C 128.344 239.637,128.000 239.814,128.000 240.204 C 128.000 240.532,127.809 240.800,127.576 240.800 C 127.343 240.800,127.264 240.620,127.400 240.400 C 127.536 240.180,127.502 239.982,127.324 239.960 C 125.225 239.703,124.800 239.770,124.794 240.362 C 124.789 240.902,124.732 240.911,124.423 240.423 C 124.127 239.956,123.861 239.935,123.034 240.312 C 122.226 240.680,121.906 240.665,121.511 240.242 C 121.094 239.796,120.921 239.815,120.475 240.353 C 120.181 240.709,120.042 240.795,120.166 240.545 C 120.302 240.271,119.919 240.020,119.206 239.916 C 118.392 239.796,118.131 239.876,118.375 240.171 C 118.612 240.458,118.339 240.628,117.551 240.685 C 116.902 240.732,116.471 240.609,116.592 240.413 C 116.714 240.216,116.630 239.942,116.407 239.804 C 116.183 239.666,116.000 239.754,116.000 240.000 C 116.000 240.246,115.820 240.336,115.600 240.200 C 115.380 240.064,115.195 240.188,115.188 240.476 C 115.180 240.800,115.020 240.732,114.768 240.300 C 114.347 239.578,114.154 239.520,113.300 239.865 M209.799 240.001 C 209.663 240.222,209.022 240.310,208.376 240.196 C 206.812 239.920,206.822 239.949,209.682 243.724 C 224.340 263.076,254.467 302.178,255.752 303.519 C 256.659 304.464,258.390 305.724,259.600 306.319 L 261.800 307.400 284.287 307.513 C 306.435 307.624,306.787 307.613,307.587 306.813 C 309.472 304.928,311.690 308.181,283.443 271.400 C 258.874 239.408,259.633 240.363,258.872 240.489 C 258.487 240.553,258.247 240.373,258.310 240.070 C 258.376 239.753,258.231 239.657,257.948 239.832 C 257.140 240.331,255.601 240.352,255.572 239.865 C 255.556 239.609,255.389 239.760,255.200 240.200 C 255.011 240.640,254.844 240.753,254.828 240.451 C 254.804 239.986,254.697 239.986,254.123 240.451 C 253.751 240.753,253.569 240.795,253.719 240.545 C 253.876 240.283,253.655 240.003,253.196 239.883 C 252.758 239.769,252.400 239.799,252.400 239.952 C 252.400 240.402,250.803 240.267,250.772 239.814 C 250.756 239.586,250.589 239.760,250.400 240.200 C 250.131 240.825,250.050 240.856,250.028 240.342 C 250.009 239.898,249.675 239.703,248.996 239.742 C 248.372 239.778,248.064 239.989,248.183 240.300 C 248.462 241.028,247.975 240.912,247.343 240.100 C 246.836 239.448,246.814 239.455,247.032 240.200 C 247.252 240.953,247.231 240.959,246.683 240.293 C 246.363 239.904,245.854 239.678,245.551 239.791 C 244.560 240.161,241.600 240.262,241.600 239.927 C 241.600 239.747,241.426 239.600,241.213 239.600 C 240.999 239.600,240.922 239.852,241.040 240.160 C 241.279 240.783,239.984 240.853,239.540 240.242 C 239.398 240.045,238.948 240.028,238.540 240.205 C 238.133 240.382,237.649 240.493,237.464 240.451 C 237.279 240.410,236.597 240.314,235.948 240.239 C 235.299 240.163,234.657 239.990,234.521 239.854 C 234.385 239.718,234.032 239.807,233.737 240.052 C 233.442 240.297,233.200 240.380,233.200 240.235 C 233.200 240.090,232.868 240.150,232.461 240.367 C 231.966 240.632,231.585 240.625,231.304 240.344 C 230.612 239.652,228.331 239.643,228.596 240.333 C 228.767 240.780,228.695 240.811,228.280 240.466 C 227.880 240.135,227.604 240.146,227.212 240.510 C 226.793 240.898,226.742 240.896,226.965 240.500 C 227.325 239.863,226.711 239.849,226.080 240.480 C 225.707 240.853,225.600 240.809,225.600 240.280 C 225.600 239.906,225.330 239.600,225.000 239.600 C 224.670 239.600,224.400 239.780,224.400 240.000 C 224.400 240.220,224.130 240.400,223.800 240.400 C 223.470 240.400,223.200 240.216,223.200 239.991 C 223.200 239.766,222.719 239.897,222.131 240.282 C 221.421 240.747,221.011 240.832,220.911 240.534 C 220.829 240.287,220.382 240.184,219.918 240.305 C 219.381 240.446,219.170 240.372,219.338 240.100 C 219.504 239.832,219.305 239.752,218.801 239.884 C 218.360 239.999,218.000 240.288,218.000 240.527 C 218.000 240.831,217.868 240.828,217.556 240.516 C 217.244 240.204,216.767 240.193,215.948 240.478 C 215.139 240.760,214.624 240.752,214.262 240.452 C 213.885 240.139,213.595 240.155,213.212 240.510 C 212.790 240.901,212.745 240.890,212.991 240.457 C 213.224 240.049,213.098 239.978,212.484 240.173 C 212.035 240.316,211.552 240.245,211.410 240.016 C 211.082 239.486,210.123 239.477,209.799 240.001 " stroke="none" fill="#0bdf73" fill-rule="evenodd"></path><path id="path3" d="M185.800 0.438 C 184.040 0.637,180.620 0.996,178.200 1.236 C 131.103 5.906,80.964 31.514,51.397 66.000 C 50.736 66.770,48.757 69.110,46.998 71.200 C 45.239 73.290,43.710 75.090,43.600 75.200 C 35.837 82.963,20.666 109.328,13.794 127.000 C 12.767 129.640,11.776 132.160,11.590 132.600 C 9.745 136.974,5.091 153.792,4.007 160.000 C 2.454 168.902,1.610 174.537,1.222 178.600 C 0.969 181.240,0.591 184.942,0.381 186.827 C -0.119 191.320,-0.108 207.650,0.398 212.884 C 1.983 229.272,3.044 236.009,6.039 248.687 C 6.523 250.740,7.319 251.280,8.290 250.213 C 8.460 250.025,8.387 249.994,8.128 250.142 C 7.868 250.291,7.542 250.230,7.404 250.007 C 6.968 249.301,8.485 249.567,9.078 250.300 C 9.601 250.946,9.615 250.938,9.258 250.194 C 8.986 249.625,9.034 249.168,9.424 248.635 C 9.727 248.221,9.862 247.701,9.725 247.479 C 9.583 247.249,9.677 247.200,9.945 247.366 C 10.202 247.525,10.292 247.851,10.145 248.089 C 9.983 248.351,10.063 248.408,10.345 248.234 C 10.602 248.075,10.709 247.777,10.583 247.572 C 10.456 247.368,10.563 247.200,10.819 247.200 C 11.076 247.200,11.187 246.942,11.066 246.627 C 10.912 246.227,11.080 246.100,11.623 246.204 C 12.102 246.297,12.400 246.133,12.400 245.777 C 12.400 245.460,12.591 245.200,12.824 245.200 C 13.057 245.200,13.152 245.046,13.036 244.858 C 12.919 244.670,13.314 244.594,13.912 244.689 C 14.693 244.814,14.845 244.754,14.449 244.476 C 13.752 243.987,14.210 243.200,15.192 243.200 C 15.694 243.200,16.022 242.809,16.200 242.000 C 16.397 241.103,16.682 240.807,17.332 240.828 C 18.141 240.854,18.147 240.877,17.429 241.158 C 16.762 241.420,16.745 241.493,17.303 241.708 C 18.091 242.010,18.395 241.297,17.969 240.145 C 17.699 239.412,17.829 239.254,18.874 239.045 C 19.863 238.847,20.053 238.645,19.878 237.978 C 19.702 237.302,19.765 237.239,20.231 237.626 C 20.683 238.001,20.800 237.965,20.800 237.449 C 20.800 236.273,20.840 236.203,21.693 235.887 C 22.240 235.685,22.660 235.756,22.885 236.087 C 23.140 236.463,23.202 236.419,23.117 235.922 C 23.053 235.550,23.334 234.998,23.743 234.696 C 24.425 234.193,24.448 233.923,24.019 231.374 C 22.232 220.740,21.992 217.853,21.739 204.000 C 21.462 188.838,21.968 181.146,24.015 169.400 C 24.245 168.080,24.607 166.010,24.818 164.800 C 25.193 162.657,26.854 155.833,28.177 151.000 C 31.571 138.606,38.462 122.381,45.167 111.000 C 46.333 109.020,47.650 106.770,48.093 106.000 C 50.056 102.585,55.875 94.288,57.900 92.017 C 58.395 91.462,58.800 90.879,58.800 90.721 C 58.800 89.512,74.397 72.686,80.618 67.185 C 102.411 47.910,123.918 36.157,153.000 27.631 C 156.038 26.740,163.605 25.024,167.200 24.409 C 168.630 24.165,170.700 23.803,171.800 23.604 C 173.838 23.236,177.943 22.735,184.868 22.007 C 194.240 21.021,216.687 21.677,226.000 23.208 C 228.702 23.652,233.587 24.364,234.087 24.387 C 234.246 24.394,234.271 24.128,234.143 23.795 C 233.970 23.345,234.093 23.261,234.625 23.465 C 235.179 23.677,235.281 23.589,235.082 23.069 C 234.941 22.701,234.999 22.400,235.213 22.400 C 235.426 22.400,235.600 22.700,235.600 23.067 C 235.600 24.052,236.005 23.471,236.238 22.149 C 236.350 21.517,236.817 20.640,237.276 20.200 C 237.735 19.760,238.003 19.595,237.873 19.833 C 237.742 20.072,237.889 20.267,238.200 20.267 C 238.511 20.267,238.672 20.117,238.559 19.933 C 238.445 19.750,238.678 19.597,239.076 19.594 C 239.610 19.589,239.663 19.501,239.281 19.259 C 238.873 19.000,238.911 18.809,239.458 18.365 C 240.063 17.873,240.114 17.878,239.847 18.400 C 239.665 18.757,239.771 18.720,240.110 18.306 C 240.423 17.925,240.806 17.739,240.961 17.894 C 241.116 18.049,241.109 17.821,240.946 17.388 C 240.693 16.713,240.739 16.672,241.272 17.105 C 241.777 17.515,241.983 17.503,242.366 17.041 C 242.730 16.602,242.728 16.403,242.358 16.174 C 242.063 15.992,241.981 16.045,242.145 16.311 C 242.292 16.549,242.249 16.846,242.048 16.970 C 241.848 17.094,241.593 16.959,241.482 16.669 C 241.217 15.978,242.571 15.149,243.484 15.444 C 244.015 15.616,244.062 15.577,243.666 15.293 C 243.236 14.985,243.264 14.861,243.808 14.652 C 244.213 14.497,244.388 14.146,244.246 13.776 C 244.111 13.423,244.178 13.263,244.405 13.403 C 244.622 13.537,244.800 13.446,244.800 13.200 C 244.800 12.954,244.999 12.876,245.243 13.026 C 245.537 13.208,245.600 13.031,245.431 12.497 C 245.257 11.951,245.390 11.613,245.845 11.438 C 246.383 11.232,246.422 11.291,246.046 11.744 C 245.683 12.182,245.714 12.358,246.190 12.541 C 246.608 12.701,246.800 12.530,246.800 11.995 C 246.800 11.497,247.161 11.125,247.800 10.964 C 248.873 10.695,249.113 10.178,248.300 9.888 C 248.025 9.790,247.931 9.569,248.090 9.398 C 248.250 9.226,248.681 9.335,249.048 9.640 C 249.642 10.133,249.686 10.101,249.448 9.353 C 249.077 8.183,250.520 6.380,251.252 7.100 C 251.531 7.375,251.944 7.600,252.169 7.600 C 253.174 7.600,250.789 6.499,248.800 6.044 C 244.961 5.168,241.486 4.414,238.600 3.833 C 232.597 2.624,221.878 1.073,216.200 0.592 C 211.522 0.195,188.952 0.081,185.800 0.438 M114.943 83.997 C 112.727 84.891,112.799 83.915,112.806 112.789 C 112.809 127.425,112.951 139.182,113.120 138.915 C 113.488 138.337,115.197 138.691,115.206 139.347 C 115.210 139.605,115.366 139.558,115.569 139.237 C 115.976 138.594,118.397 138.392,118.406 139.000 C 118.410 139.220,118.587 139.130,118.800 138.800 C 119.058 138.400,119.190 138.367,119.194 138.700 C 119.203 139.441,120.292 139.306,120.810 138.500 C 121.239 137.833,121.250 137.833,121.043 138.500 C 120.771 139.372,121.535 139.434,121.868 138.566 C 122.050 138.094,122.189 138.058,122.416 138.426 C 122.761 138.985,125.601 139.186,125.600 138.651 C 125.600 138.459,125.870 138.526,126.200 138.800 C 126.656 139.179,126.933 139.187,127.358 138.835 C 127.979 138.319,128.852 138.392,129.283 138.997 C 129.461 139.246,129.759 139.187,130.083 138.838 C 130.509 138.381,130.501 138.339,130.038 138.603 C 129.669 138.814,129.571 138.770,129.752 138.477 C 129.936 138.181,130.346 138.151,130.973 138.390 C 131.493 138.587,132.026 138.640,132.159 138.508 C 132.291 138.375,132.400 138.432,132.400 138.633 C 132.399 139.043,135.705 139.030,136.373 138.617 C 136.608 138.472,136.800 138.513,136.800 138.710 C 136.800 138.906,137.067 139.067,137.394 139.067 C 137.874 139.067,137.894 138.945,137.501 138.433 C 137.208 138.053,137.370 138.104,137.907 138.562 C 138.398 138.981,138.803 139.161,138.806 138.962 C 138.809 138.763,138.987 138.870,139.200 139.200 C 139.466 139.612,139.590 139.641,139.594 139.292 C 139.598 138.951,139.928 138.867,140.605 139.037 C 141.209 139.189,141.878 139.072,142.282 138.745 C 142.651 138.445,142.835 138.399,142.689 138.642 C 142.519 138.926,142.834 139.069,143.573 139.042 C 144.205 139.019,144.655 138.891,144.573 138.758 C 144.491 138.625,144.941 138.535,145.573 138.558 C 146.205 138.581,146.638 138.735,146.537 138.900 C 146.159 139.515,146.932 139.173,147.441 138.500 C 147.922 137.863,147.954 137.886,147.798 138.750 C 147.629 139.689,147.636 139.691,148.482 138.950 C 148.953 138.537,149.206 138.425,149.045 138.700 C 148.693 139.302,148.998 139.336,149.986 138.807 C 150.540 138.511,150.780 138.571,150.964 139.051 C 151.187 139.631,151.293 139.631,152.174 139.054 C 152.899 138.579,153.190 138.543,153.339 138.910 C 153.448 139.180,153.551 136.025,153.568 131.900 L 153.600 124.400 200.638 124.400 L 247.677 124.400 246.338 126.180 C 245.602 127.159,243.031 130.534,240.624 133.680 C 238.217 136.826,236.535 139.167,236.885 138.883 C 237.406 138.461,237.560 138.461,237.730 138.883 C 237.888 139.279,237.944 139.283,237.968 138.900 C 237.986 138.625,238.191 138.400,238.424 138.400 C 238.657 138.400,238.725 138.598,238.575 138.840 C 238.378 139.160,238.528 139.160,239.125 138.840 C 240.181 138.275,241.265 138.241,240.400 138.800 C 240.039 139.033,239.990 139.190,240.276 139.194 C 240.538 139.197,240.854 139.037,240.977 138.838 C 241.100 138.638,241.589 138.577,242.063 138.701 C 242.705 138.868,242.842 138.792,242.601 138.401 C 242.381 138.046,242.432 137.973,242.758 138.174 C 243.126 138.402,243.129 138.603,242.770 139.036 C 242.119 139.820,242.598 139.745,243.408 138.935 C 243.971 138.372,244.130 138.357,244.444 138.835 C 244.752 139.303,244.926 139.263,245.461 138.600 C 245.879 138.083,246.032 138.022,245.894 138.428 C 245.658 139.121,247.349 139.250,248.374 138.616 C 248.746 138.386,248.831 138.426,248.638 138.738 C 248.471 139.009,248.601 139.200,248.953 139.200 C 249.283 139.200,249.662 139.023,249.797 138.806 C 250.156 138.224,251.818 138.618,251.694 139.255 C 251.631 139.582,251.815 139.510,252.156 139.076 C 252.520 138.611,252.818 138.505,252.988 138.781 C 253.157 139.053,253.490 139.078,253.901 138.847 C 254.300 138.624,254.899 138.645,255.463 138.901 C 256.133 139.207,256.539 139.182,256.988 138.810 C 257.471 138.409,257.600 138.407,257.600 138.800 C 257.600 139.134,257.765 139.173,258.100 138.918 C 258.604 138.536,259.827 138.558,262.400 138.995 C 263.426 139.170,263.640 139.124,263.200 138.823 C 262.870 138.597,262.789 138.409,263.020 138.406 C 263.251 138.403,263.636 138.596,263.875 138.835 C 264.188 139.148,264.385 139.148,264.579 138.834 C 264.773 138.520,265.079 138.521,265.673 138.839 C 266.230 139.137,266.412 139.142,266.234 138.855 C 266.068 138.586,266.402 138.461,267.147 138.515 C 267.793 138.562,268.251 138.716,268.163 138.858 C 268.076 139.000,268.274 139.219,268.602 139.346 C 268.985 139.492,269.211 139.327,269.232 138.887 C 269.251 138.470,269.342 138.397,269.465 138.700 C 269.576 138.975,269.842 139.200,270.057 139.200 C 270.272 139.200,270.343 139.031,270.215 138.825 C 270.081 138.608,270.450 138.543,271.092 138.672 C 272.411 138.935,272.703 138.933,273.964 138.643 C 274.602 138.496,275.111 138.654,275.470 139.111 C 275.875 139.627,275.985 139.652,275.906 139.213 C 275.798 138.615,276.401 138.561,278.980 138.936 C 279.628 139.030,280.494 138.903,280.904 138.654 C 281.494 138.294,281.748 138.334,282.129 138.847 C 282.535 139.392,282.691 139.407,283.121 138.947 C 283.838 138.179,284.418 138.266,284.150 139.100 C 283.988 139.603,284.029 139.655,284.295 139.286 C 284.689 138.738,286.998 138.155,286.670 138.686 C 286.564 138.859,286.894 139.000,287.404 139.000 C 288.122 139.000,288.234 138.882,287.898 138.477 C 287.575 138.088,287.604 137.986,288.010 138.077 C 289.008 138.302,289.105 136.018,289.153 111.280 C 289.204 84.656,289.238 85.093,287.011 84.078 C 285.752 83.504,116.361 83.424,114.943 83.997 " stroke="none" fill="#04f7e1" fill-rule="evenodd"></path><path id="path4" d="M115.600 179.348 C 115.600 179.710,115.158 179.880,114.300 179.848 L 113.000 179.800 112.897 209.928 C 112.797 239.545,112.808 240.051,113.568 239.810 C 114.077 239.649,114.483 239.810,114.758 240.282 C 115.009 240.714,115.181 240.792,115.188 240.476 C 115.195 240.188,115.380 240.064,115.600 240.200 C 115.820 240.336,116.000 240.246,116.000 240.000 C 116.000 239.754,116.183 239.666,116.407 239.804 C 116.630 239.942,116.714 240.216,116.592 240.413 C 116.471 240.609,116.902 240.732,117.551 240.685 C 118.339 240.628,118.612 240.458,118.375 240.171 C 118.131 239.876,118.392 239.796,119.206 239.916 C 119.919 240.020,120.302 240.271,120.166 240.545 C 120.042 240.795,120.181 240.709,120.475 240.353 C 120.921 239.815,121.094 239.796,121.511 240.242 C 121.906 240.665,122.226 240.680,123.034 240.312 C 123.861 239.935,124.127 239.956,124.423 240.423 C 124.732 240.911,124.789 240.902,124.794 240.362 C 124.800 239.770,125.225 239.703,127.324 239.960 C 127.502 239.982,127.536 240.180,127.400 240.400 C 127.264 240.620,127.343 240.800,127.576 240.800 C 127.809 240.800,128.000 240.532,128.000 240.204 C 128.000 239.814,128.344 239.637,129.000 239.692 C 129.550 239.737,130.000 239.885,130.000 240.021 C 130.000 240.157,131.440 240.184,133.200 240.082 C 135.473 239.951,136.400 240.032,136.400 240.363 C 136.400 240.704,136.613 240.714,137.200 240.400 C 137.640 240.165,138.000 240.104,138.000 240.266 C 138.000 240.428,138.216 240.344,138.480 240.080 C 139.159 239.401,139.595 239.484,139.632 240.300 C 139.650 240.718,139.744 240.799,139.865 240.500 C 140.094 239.932,141.443 239.823,141.767 240.346 C 142.056 240.814,143.901 240.580,144.619 239.984 C 144.939 239.719,145.200 239.659,145.200 239.851 C 145.200 240.043,145.649 240.226,146.198 240.258 C 146.813 240.293,147.094 240.151,146.931 239.888 C 146.786 239.654,147.087 239.756,147.601 240.116 C 148.468 240.723,148.571 240.721,149.054 240.085 C 149.405 239.623,149.579 239.570,149.587 239.924 C 149.594 240.212,149.744 240.358,149.919 240.250 C 150.095 240.142,150.494 240.211,150.806 240.404 C 151.150 240.616,151.582 240.581,151.904 240.314 C 153.119 239.306,153.197 241.095,153.304 272.418 C 153.383 295.626,153.410 293.031,153.406 262.800 C 153.396 191.086,153.282 179.717,152.572 179.445 C 152.222 179.310,152.063 179.379,152.203 179.605 C 152.337 179.822,152.156 180.000,151.800 180.000 C 151.413 180.000,151.267 179.815,151.438 179.538 C 151.634 179.221,151.548 179.188,151.162 179.432 C 150.400 179.914,149.858 179.908,149.506 179.413 C 149.317 179.147,149.210 179.178,149.206 179.500 C 149.203 179.775,148.919 180.000,148.576 180.000 C 148.184 180.000,148.064 179.815,148.253 179.500 C 148.457 179.160,148.337 179.176,147.877 179.549 C 147.505 179.851,147.200 179.934,147.200 179.735 C 147.200 179.535,146.840 179.371,146.400 179.371 C 145.960 179.371,145.600 179.474,145.600 179.600 C 145.600 179.726,145.253 179.829,144.829 179.829 C 144.406 179.829,144.146 179.687,144.253 179.514 C 144.563 179.012,143.408 179.152,142.880 179.680 C 142.507 180.053,142.293 180.053,141.920 179.680 C 141.386 179.146,140.000 179.025,140.000 179.513 C 140.000 179.685,139.161 179.777,138.136 179.717 C 137.111 179.657,136.021 179.816,135.714 180.072 C 135.284 180.428,135.183 180.418,135.277 180.030 C 135.362 179.684,134.805 179.506,133.500 179.463 C 132.455 179.428,131.600 179.548,131.600 179.729 C 131.600 179.909,131.317 179.774,130.971 179.429 C 130.164 178.621,129.744 178.610,130.411 179.413 C 130.855 179.949,130.791 179.977,129.894 179.636 C 129.067 179.321,128.817 179.377,128.605 179.923 C 128.365 180.543,128.296 180.536,127.784 179.841 C 127.322 179.213,127.119 179.169,126.613 179.590 C 126.195 179.936,126.000 179.955,126.000 179.649 C 126.000 179.402,125.809 179.200,125.576 179.200 C 125.343 179.200,125.281 179.408,125.438 179.662 C 125.613 179.945,125.548 180.015,125.270 179.843 C 125.021 179.689,124.431 179.769,123.960 180.021 C 123.364 180.340,123.186 180.346,123.375 180.040 C 123.525 179.798,123.412 179.587,123.124 179.570 C 122.836 179.554,122.184 179.463,121.676 179.369 C 121.165 179.274,120.855 179.365,120.982 179.571 C 121.109 179.777,121.002 180.075,120.745 180.234 C 120.446 180.419,120.384 180.350,120.573 180.043 C 120.785 179.701,120.544 179.610,119.735 179.727 C 119.111 179.818,118.375 179.714,118.100 179.497 C 117.764 179.231,117.404 179.265,117.000 179.600 C 116.509 180.008,116.400 179.980,116.400 179.449 C 116.400 179.092,116.220 178.800,116.000 178.800 C 115.780 178.800,115.600 179.047,115.600 179.348 M226.225 179.160 C 226.102 179.358,225.473 179.484,224.826 179.439 C 224.179 179.394,223.740 179.502,223.849 179.679 C 223.958 179.855,223.857 180.000,223.624 180.000 C 223.391 180.000,223.200 179.799,223.200 179.553 C 223.200 179.280,222.851 179.208,222.300 179.367 C 220.581 179.864,217.475 179.961,216.691 179.542 C 216.064 179.206,215.970 179.230,216.229 179.660 C 216.493 180.099,216.438 180.107,215.940 179.703 C 215.603 179.430,215.193 179.340,215.030 179.503 C 214.625 179.907,208.803 179.882,208.801 179.476 C 208.801 179.298,208.575 179.294,208.300 179.466 C 207.780 179.791,207.568 179.838,206.141 179.939 C 204.999 180.020,183.600 207.600,183.600 208.991 C 183.600 209.974,184.583 211.322,198.496 229.420 C 207.427 241.038,207.415 241.028,210.105 239.826 C 210.513 239.643,211.039 239.701,211.354 239.962 C 211.654 240.211,212.221 240.290,212.615 240.139 C 213.158 239.930,213.253 240.001,213.007 240.432 C 212.747 240.887,212.788 240.902,213.212 240.510 C 213.595 240.155,213.885 240.139,214.262 240.452 C 214.624 240.752,215.139 240.760,215.948 240.478 C 216.767 240.193,217.244 240.204,217.556 240.516 C 217.868 240.828,218.000 240.831,218.000 240.527 C 218.000 240.288,218.360 239.999,218.801 239.884 C 219.305 239.752,219.504 239.832,219.338 240.100 C 219.170 240.372,219.381 240.446,219.918 240.305 C 220.382 240.184,220.829 240.287,220.911 240.534 C 221.011 240.832,221.421 240.747,222.131 240.282 C 222.719 239.897,223.200 239.766,223.200 239.991 C 223.200 240.216,223.470 240.400,223.800 240.400 C 224.130 240.400,224.400 240.220,224.400 240.000 C 224.400 239.780,224.670 239.600,225.000 239.600 C 225.330 239.600,225.600 239.906,225.600 240.280 C 225.600 240.809,225.707 240.853,226.080 240.480 C 226.712 239.848,227.330 239.862,226.947 240.500 C 226.708 240.897,226.772 240.899,227.253 240.510 C 227.732 240.122,227.963 240.122,228.353 240.510 C 228.744 240.898,228.798 240.870,228.610 240.376 C 228.332 239.646,230.579 239.619,231.304 240.344 C 231.585 240.625,231.966 240.632,232.461 240.367 C 232.868 240.150,233.200 240.090,233.200 240.235 C 233.200 240.380,233.442 240.297,233.737 240.052 C 234.032 239.807,234.385 239.718,234.521 239.854 C 234.657 239.990,235.299 240.163,235.948 240.239 C 236.597 240.314,237.279 240.410,237.464 240.451 C 237.649 240.493,238.133 240.382,238.540 240.205 C 238.948 240.028,239.398 240.045,239.540 240.242 C 239.984 240.853,241.279 240.783,241.040 240.160 C 240.922 239.852,240.999 239.600,241.213 239.600 C 241.426 239.600,241.600 239.747,241.600 239.927 C 241.600 240.262,244.560 240.161,245.551 239.791 C 245.854 239.678,246.363 239.904,246.683 240.293 C 247.231 240.959,247.252 240.953,247.032 240.200 C 246.814 239.455,246.836 239.448,247.343 240.100 C 247.975 240.912,248.462 241.028,248.183 240.300 C 248.064 239.989,248.372 239.778,248.996 239.742 C 249.675 239.703,250.009 239.898,250.028 240.342 C 250.050 240.856,250.131 240.825,250.400 240.200 C 250.589 239.760,250.756 239.586,250.772 239.814 C 250.803 240.267,252.400 240.402,252.400 239.952 C 252.400 239.799,252.758 239.769,253.196 239.883 C 253.655 240.003,253.876 240.283,253.719 240.545 C 253.569 240.795,253.751 240.753,254.123 240.451 C 254.697 239.986,254.804 239.986,254.828 240.451 C 254.844 240.753,255.011 240.640,255.200 240.200 C 255.389 239.760,255.556 239.609,255.572 239.865 C 255.601 240.352,257.140 240.331,257.948 239.832 C 258.231 239.657,258.376 239.753,258.310 240.070 C 258.249 240.362,258.444 240.549,258.742 240.486 C 259.040 240.423,259.573 240.603,259.927 240.886 C 260.280 241.169,259.390 239.870,257.948 238.000 C 256.506 236.130,251.399 229.470,246.600 223.200 C 241.800 216.930,237.363 211.146,236.740 210.347 L 235.607 208.894 246.334 194.747 C 256.620 181.181,258.008 179.200,257.221 179.200 C 257.026 179.200,256.807 179.378,256.733 179.595 C 256.653 179.832,256.172 179.768,255.528 179.433 C 254.610 178.957,254.425 178.957,254.241 179.438 C 254.122 179.747,253.665 180.000,253.225 180.000 C 252.630 180.000,252.492 179.821,252.687 179.300 C 252.917 178.687,252.866 178.668,252.275 179.149 C 251.904 179.451,251.600 179.564,251.600 179.400 C 251.600 179.236,251.330 179.326,251.000 179.600 C 250.585 179.944,250.400 179.959,250.400 179.649 C 250.400 179.402,250.119 179.200,249.776 179.200 C 249.388 179.200,249.263 179.389,249.445 179.700 C 249.606 179.975,249.339 179.850,248.852 179.422 C 248.101 178.764,248.005 178.748,248.226 179.322 C 248.373 179.708,248.295 180.000,248.043 180.000 C 247.799 180.000,247.600 179.824,247.600 179.610 C 247.600 179.357,247.241 179.356,246.577 179.609 C 245.901 179.866,245.638 179.863,245.801 179.599 C 246.025 179.236,244.774 178.981,243.800 179.192 C 243.580 179.239,242.963 179.360,242.428 179.460 C 241.893 179.560,241.311 179.732,241.133 179.842 C 240.955 179.952,240.931 179.717,241.079 179.321 C 241.316 178.689,241.267 178.668,240.680 179.145 C 240.312 179.444,239.760 179.593,239.454 179.476 C 239.148 179.359,238.669 179.473,238.390 179.731 C 238.002 180.090,237.945 180.089,238.149 179.727 C 238.431 179.223,236.637 179.230,236.133 179.734 C 235.986 179.880,235.672 179.997,235.433 179.994 C 235.195 179.991,235.270 179.813,235.600 179.600 C 236.083 179.288,236.019 179.211,235.276 179.206 C 234.761 179.203,234.462 179.377,234.600 179.600 C 234.736 179.820,234.556 180.000,234.200 180.000 C 233.844 180.000,233.636 179.865,233.738 179.700 C 233.840 179.535,232.608 179.400,231.000 179.400 C 229.392 179.400,228.160 179.535,228.262 179.700 C 228.364 179.865,228.257 180.000,228.024 180.000 C 227.791 180.000,227.597 179.775,227.594 179.500 C 227.590 179.164,227.491 179.141,227.294 179.429 C 226.828 180.110,225.652 180.407,225.351 179.921 C 225.195 179.669,225.257 179.588,225.493 179.734 C 225.722 179.875,226.132 179.723,226.404 179.396 C 226.676 179.068,226.797 178.800,226.673 178.800 C 226.549 178.800,226.347 178.962,226.225 179.160 " stroke="none" fill="#09ee99" fill-rule="evenodd"></path><path id="path5" d="M316.944 38.271 C 317.091 38.530,316.744 39.250,316.172 39.871 C 315.270 40.851,315.216 40.869,315.766 40.011 C 316.677 38.590,316.547 38.110,315.556 39.239 C 315.093 39.767,314.522 40.145,314.289 40.077 C 314.055 40.010,314.101 40.239,314.389 40.587 C 314.678 40.935,314.798 41.335,314.657 41.476 C 314.516 41.618,314.400 41.543,314.400 41.309 C 314.400 40.680,313.409 40.416,312.764 40.875 C 312.316 41.193,312.343 41.230,312.894 41.053 C 313.341 40.909,313.746 41.126,314.034 41.663 C 314.285 42.132,314.307 42.390,314.084 42.252 C 313.866 42.117,313.420 42.415,313.093 42.915 C 312.483 43.845,310.536 44.381,311.055 43.476 C 311.206 43.214,311.170 43.144,310.977 43.320 C 310.784 43.496,310.599 44.126,310.565 44.720 C 310.481 46.205,310.438 46.280,310.034 45.642 C 309.568 44.906,308.392 45.379,308.428 46.287 C 308.453 46.926,308.488 46.920,308.758 46.229 C 309.003 45.605,309.104 45.572,309.290 46.058 C 309.421 46.399,309.205 46.854,308.789 47.114 C 308.323 47.405,308.009 47.426,307.924 47.172 C 307.847 46.941,307.456 47.023,306.995 47.366 C 306.207 47.955,306.207 47.958,307.028 47.752 C 307.513 47.630,308.075 47.808,308.385 48.181 C 308.836 48.725,308.817 48.781,308.257 48.566 C 307.848 48.409,307.598 48.519,307.594 48.857 C 307.589 49.308,307.530 49.309,307.249 48.866 C 306.624 47.880,305.037 49.082,305.013 50.558 C 305.005 51.110,304.759 51.381,304.300 51.344 C 303.915 51.314,303.600 51.480,303.600 51.713 C 303.600 51.946,303.302 52.466,302.938 52.869 C 302.574 53.271,302.456 53.600,302.677 53.600 C 303.028 53.600,303.469 53.911,305.430 55.543 C 305.666 55.740,306.836 56.588,308.030 57.428 C 309.223 58.268,311.023 59.686,312.029 60.578 C 313.035 61.470,314.725 62.920,315.784 63.800 C 320.853 68.013,329.961 77.017,333.991 81.800 C 334.918 82.900,335.884 83.980,336.138 84.200 C 336.392 84.420,337.353 85.590,338.274 86.800 C 339.195 88.010,340.275 89.360,340.674 89.800 C 346.911 96.676,360.066 118.979,364.422 130.062 C 364.884 131.238,365.505 132.740,365.802 133.400 C 366.099 134.060,366.994 136.400,367.791 138.600 C 368.588 140.800,369.349 142.870,369.483 143.200 C 369.617 143.530,369.694 143.948,369.654 144.130 C 369.613 144.311,369.765 144.345,369.990 144.206 C 370.216 144.067,370.400 143.683,370.400 143.353 C 370.400 143.023,370.580 142.864,370.800 143.000 C 371.020 143.136,371.200 142.986,371.200 142.666 C 371.200 142.347,371.495 141.972,371.857 141.834 C 372.431 141.613,372.443 141.668,371.957 142.268 C 371.539 142.783,371.531 142.875,371.925 142.638 C 372.213 142.464,372.638 141.845,372.869 141.261 C 373.263 140.264,373.308 140.248,373.616 141.000 C 373.796 141.440,373.956 141.564,373.972 141.276 C 373.987 140.988,374.168 140.856,374.372 140.983 C 374.577 141.109,374.850 141.043,374.979 140.834 C 375.108 140.626,375.002 140.325,374.745 140.166 C 374.433 139.973,374.384 140.051,374.600 140.400 C 374.814 140.747,374.767 140.827,374.461 140.638 C 373.873 140.275,374.501 139.000,375.445 138.638 C 376.005 138.423,376.031 138.480,375.608 138.991 C 375.320 139.338,375.277 139.600,375.508 139.600 C 376.011 139.600,376.482 138.457,376.181 137.968 C 376.058 137.771,376.238 137.716,376.579 137.847 C 377.132 138.060,377.268 137.846,377.170 136.920 C 377.154 136.766,377.511 136.503,377.964 136.335 C 378.501 136.137,378.702 135.811,378.544 135.399 C 378.354 134.904,378.516 134.805,379.288 134.945 C 379.831 135.044,380.528 134.944,380.838 134.724 C 381.282 134.408,381.253 134.372,380.700 134.550 C 380.315 134.674,380.000 134.622,380.000 134.434 C 380.000 134.247,380.373 133.996,380.830 133.876 C 381.286 133.757,381.760 133.276,381.882 132.807 C 382.005 132.338,382.325 132.039,382.593 132.142 C 382.903 132.261,383.066 131.958,383.040 131.306 C 383.013 130.619,383.230 130.249,383.702 130.177 C 384.088 130.118,384.301 130.237,384.174 130.442 C 384.048 130.646,383.777 130.709,383.572 130.583 C 383.368 130.456,383.200 130.533,383.200 130.753 C 383.200 130.973,383.371 131.258,383.580 131.388 C 384.085 131.700,384.915 130.110,384.553 129.524 C 384.364 129.218,384.492 129.150,384.934 129.319 C 385.369 129.486,385.600 129.371,385.600 128.987 C 385.600 128.664,385.780 128.400,386.000 128.400 C 387.053 128.400,384.283 121.349,379.400 111.600 C 378.904 110.610,377.935 108.669,377.246 107.287 C 376.557 105.905,375.574 104.105,375.060 103.287 C 374.547 102.469,373.674 100.990,373.120 100.000 C 372.566 99.010,371.706 97.480,371.208 96.600 C 363.875 83.641,345.546 61.560,334.277 52.112 C 332.560 50.672,330.670 49.022,330.077 48.447 C 328.055 46.482,324.338 43.401,323.536 43.025 C 323.096 42.818,322.085 42.053,321.290 41.325 C 320.494 40.596,319.664 40.000,319.444 40.000 C 319.224 40.000,318.511 39.505,317.860 38.900 C 317.209 38.295,316.797 38.012,316.944 38.271 M52.000 302.800 C 51.683 303.240,51.058 303.621,50.612 303.646 C 49.930 303.685,49.913 303.722,50.505 303.877 C 50.893 303.978,51.105 304.230,50.977 304.437 C 50.849 304.644,50.532 304.707,50.272 304.577 C 50.013 304.447,50.120 304.603,50.512 304.923 C 51.147 305.443,51.155 305.532,50.586 305.750 C 50.236 305.884,50.038 306.137,50.146 306.312 C 50.254 306.487,49.860 306.670,49.271 306.719 C 48.682 306.767,48.143 306.975,48.074 307.181 C 48.005 307.387,47.713 307.465,47.425 307.354 C 47.056 307.213,46.957 307.439,47.088 308.124 C 47.237 308.907,47.073 309.145,46.239 309.354 C 45.670 309.497,45.225 309.746,45.250 309.907 C 45.364 310.651,45.163 311.200,44.776 311.200 C 44.543 311.200,44.488 310.975,44.653 310.700 C 44.892 310.303,44.828 310.301,44.347 310.690 C 43.868 311.078,43.623 311.078,43.181 310.690 C 42.873 310.421,42.956 310.601,43.364 311.091 C 43.773 311.580,44.308 311.867,44.553 311.726 C 44.808 311.581,44.856 311.629,44.667 311.836 C 44.483 312.036,44.123 312.208,43.867 312.218 C 43.610 312.228,43.439 312.435,43.486 312.677 C 43.534 312.920,43.251 313.034,42.858 312.931 C 42.466 312.828,41.921 313.013,41.649 313.341 C 41.230 313.845,41.296 313.907,42.077 313.741 C 42.905 313.565,42.926 313.592,42.276 314.006 C 41.877 314.259,41.267 314.358,40.919 314.224 C 40.369 314.013,40.359 314.071,40.843 314.668 C 41.321 315.256,41.319 315.305,40.832 315.011 C 40.408 314.756,40.328 314.835,40.515 315.322 C 40.898 316.321,40.054 316.567,39.082 315.739 C 38.333 315.101,38.288 315.096,38.756 315.700 C 39.249 316.337,39.105 316.574,38.300 316.447 C 38.135 316.421,38.000 316.553,38.000 316.740 C 38.000 317.286,41.988 322.400,42.413 322.400 C 42.626 322.400,42.800 322.609,42.800 322.864 C 42.800 323.302,45.299 326.820,46.475 328.036 C 46.774 328.346,48.434 330.220,50.163 332.200 C 54.844 337.559,60.784 343.545,66.400 348.558 C 73.917 355.270,76.106 357.071,82.536 361.833 C 84.708 363.442,96.306 371.200,96.539 371.200 C 96.637 371.200,97.952 371.950,99.459 372.867 C 105.485 376.532,116.718 382.111,123.910 385.011 C 127.839 386.595,128.478 386.699,128.134 385.700 C 127.938 385.131,128.013 385.150,128.533 385.800 C 129.170 386.594,129.175 386.594,129.187 385.722 C 129.195 385.166,129.603 384.650,130.300 384.316 C 130.905 384.026,131.400 383.522,131.400 383.195 C 131.400 382.868,131.753 382.503,132.185 382.385 C 132.617 382.267,133.094 381.727,133.246 381.185 C 133.397 380.643,133.538 380.375,133.560 380.589 C 133.582 380.803,133.886 380.569,134.236 380.070 C 134.774 379.301,134.971 379.242,135.513 379.681 C 136.000 380.076,136.081 380.080,135.851 379.697 C 135.668 379.393,135.809 379.095,136.208 378.942 C 136.735 378.739,136.760 378.621,136.334 378.350 C 135.902 378.077,135.900 378.011,136.324 378.006 C 136.614 378.003,136.721 377.796,136.564 377.542 C 136.370 377.227,136.604 377.146,137.314 377.281 C 138.253 377.461,138.334 377.375,138.202 376.333 C 138.117 375.660,138.217 375.287,138.446 375.428 C 139.000 375.771,140.000 374.836,140.000 373.975 C 140.000 373.575,140.211 373.117,140.468 372.958 C 140.772 372.770,140.856 372.878,140.706 373.268 C 140.569 373.624,140.703 373.867,141.038 373.867 C 141.347 373.867,141.600 373.668,141.600 373.426 C 141.600 373.184,142.095 372.668,142.700 372.281 C 143.317 371.886,143.504 371.625,143.126 371.688 C 142.756 371.750,142.436 371.631,142.415 371.425 C 142.365 370.924,143.536 370.772,143.826 371.242 C 143.952 371.446,144.234 371.503,144.452 371.368 C 144.681 371.226,144.543 370.874,144.124 370.532 C 143.726 370.207,143.625 370.055,143.900 370.194 C 144.175 370.333,144.400 370.285,144.400 370.087 C 144.400 369.889,143.635 369.502,142.700 369.226 C 116.132 361.409,83.039 338.866,63.095 315.000 C 61.441 313.020,59.535 310.770,58.860 310.000 C 58.185 309.230,57.625 308.468,57.616 308.307 C 57.594 307.908,53.085 302.000,52.802 302.000 C 52.678 302.000,52.317 302.360,52.000 302.800 " stroke="none" fill="#04c48e" fill-rule="evenodd"></path><path id="path6" d="M249.800 7.744 C 249.432 8.306,249.297 8.993,249.466 9.444 C 249.718 10.116,249.673 10.138,249.065 9.643 C 248.689 9.337,248.250 9.226,248.090 9.398 C 247.931 9.569,248.025 9.790,248.300 9.888 C 249.113 10.178,248.873 10.695,247.800 10.964 C 247.161 11.125,246.800 11.497,246.800 11.995 C 246.800 12.530,246.608 12.701,246.190 12.541 C 245.714 12.358,245.683 12.182,246.046 11.744 C 246.422 11.291,246.383 11.232,245.845 11.438 C 245.390 11.613,245.257 11.951,245.431 12.497 C 245.600 13.031,245.537 13.208,245.243 13.026 C 244.999 12.876,244.800 12.954,244.800 13.200 C 244.800 13.446,244.622 13.537,244.405 13.403 C 244.178 13.263,244.111 13.423,244.246 13.776 C 244.388 14.146,244.213 14.497,243.808 14.652 C 243.264 14.861,243.236 14.985,243.666 15.293 C 244.062 15.577,244.015 15.616,243.484 15.444 C 242.571 15.149,241.217 15.978,241.482 16.669 C 241.593 16.959,241.848 17.094,242.048 16.970 C 242.249 16.846,242.292 16.549,242.145 16.311 C 241.981 16.045,242.063 15.992,242.358 16.174 C 242.728 16.403,242.730 16.602,242.366 17.041 C 241.983 17.503,241.777 17.515,241.272 17.105 C 240.739 16.672,240.693 16.713,240.946 17.388 C 241.109 17.821,241.116 18.049,240.961 17.894 C 240.806 17.739,240.423 17.925,240.110 18.306 C 239.771 18.720,239.665 18.757,239.847 18.400 C 240.114 17.878,240.063 17.873,239.458 18.365 C 238.911 18.809,238.873 19.000,239.281 19.259 C 239.663 19.501,239.610 19.589,239.076 19.594 C 238.678 19.597,238.445 19.750,238.559 19.933 C 238.672 20.117,238.511 20.267,238.200 20.267 C 237.889 20.267,237.742 20.072,237.873 19.833 C 238.003 19.595,237.735 19.760,237.276 20.200 C 236.817 20.640,236.350 21.517,236.238 22.149 C 236.005 23.471,235.600 24.052,235.600 23.067 C 235.600 22.700,235.426 22.400,235.213 22.400 C 234.999 22.400,234.941 22.701,235.082 23.069 C 235.281 23.589,235.179 23.677,234.625 23.465 C 234.082 23.256,233.969 23.343,234.155 23.828 C 234.290 24.179,234.400 24.541,234.400 24.633 C 234.400 24.725,234.784 24.800,235.254 24.800 C 235.723 24.800,236.758 24.976,237.554 25.191 C 238.349 25.406,240.620 25.960,242.600 26.422 C 244.580 26.884,246.740 27.419,247.400 27.611 C 248.060 27.803,249.950 28.352,251.600 28.830 C 260.696 31.466,272.729 36.295,283.200 41.509 C 285.730 42.769,287.944 44.025,288.120 44.300 C 288.296 44.575,288.614 44.800,288.827 44.800 C 289.242 44.800,295.267 48.357,295.600 48.799 C 295.710 48.945,296.385 49.319,297.100 49.630 C 297.815 49.941,298.400 50.304,298.400 50.438 C 298.400 50.571,299.320 51.253,300.445 51.952 C 302.498 53.228,303.600 53.173,303.600 51.795 C 303.600 51.517,303.915 51.314,304.300 51.344 C 304.759 51.381,305.005 51.110,305.013 50.558 C 305.037 49.082,306.624 47.880,307.249 48.866 C 307.530 49.309,307.589 49.308,307.594 48.857 C 307.598 48.519,307.848 48.409,308.257 48.566 C 308.817 48.781,308.836 48.725,308.385 48.181 C 308.075 47.808,307.513 47.630,307.028 47.752 C 306.207 47.958,306.207 47.955,306.995 47.366 C 307.456 47.023,307.847 46.941,307.924 47.172 C 308.009 47.426,308.323 47.405,308.789 47.114 C 309.205 46.854,309.421 46.399,309.290 46.058 C 309.104 45.572,309.003 45.605,308.758 46.229 C 308.488 46.920,308.453 46.926,308.428 46.287 C 308.392 45.379,309.568 44.906,310.034 45.642 C 310.438 46.280,310.481 46.205,310.565 44.720 C 310.599 44.126,310.784 43.496,310.977 43.320 C 311.170 43.144,311.206 43.214,311.055 43.476 C 310.536 44.381,312.483 43.845,313.093 42.915 C 313.420 42.415,313.866 42.117,314.084 42.252 C 314.307 42.390,314.285 42.132,314.034 41.663 C 313.746 41.126,313.341 40.909,312.894 41.053 C 312.343 41.230,312.316 41.193,312.764 40.875 C 313.409 40.416,314.400 40.680,314.400 41.309 C 314.400 41.543,314.516 41.618,314.657 41.476 C 314.798 41.335,314.678 40.935,314.389 40.587 C 314.101 40.239,314.055 40.010,314.289 40.077 C 314.522 40.145,315.093 39.767,315.556 39.239 C 316.547 38.110,316.677 38.590,315.766 40.011 C 315.225 40.855,315.286 40.833,316.182 39.860 C 317.483 38.446,317.413 38.350,312.859 35.309 C 310.956 34.039,309.310 32.902,309.200 32.783 C 309.090 32.664,307.650 31.733,306.000 30.714 C 304.350 29.695,302.370 28.460,301.600 27.969 C 298.707 26.125,283.249 18.160,279.600 16.634 C 278.610 16.220,277.080 15.570,276.200 15.189 C 274.570 14.483,268.774 12.274,266.600 11.530 C 265.940 11.304,264.995 10.957,264.500 10.760 C 262.292 9.877,261.664 9.660,259.474 9.021 C 258.194 8.648,256.214 8.098,255.074 7.800 C 253.933 7.501,252.640 7.137,252.200 6.991 C 251.553 6.776,251.515 6.807,252.000 7.156 C 252.371 7.423,252.418 7.590,252.124 7.594 C 251.862 7.597,251.536 7.420,251.400 7.200 C 251.000 6.553,250.460 6.736,249.800 7.744 M120.655 138.600 C 120.377 139.324,119.203 139.405,119.194 138.700 C 119.190 138.367,119.058 138.400,118.800 138.800 C 118.587 139.130,118.410 139.220,118.406 139.000 C 118.397 138.392,115.976 138.594,115.569 139.237 C 115.366 139.558,115.210 139.605,115.206 139.347 C 115.197 138.691,113.488 138.337,113.120 138.915 C 112.951 139.182,112.809 148.492,112.806 159.605 L 112.800 179.809 114.200 179.833 C 115.105 179.848,115.600 179.670,115.600 179.328 C 115.600 179.038,115.780 178.800,116.000 178.800 C 116.220 178.800,116.400 179.092,116.400 179.449 C 116.400 179.980,116.509 180.008,117.000 179.600 C 117.404 179.265,117.764 179.231,118.100 179.497 C 118.375 179.714,119.111 179.818,119.735 179.727 C 120.544 179.610,120.785 179.701,120.573 180.043 C 120.384 180.350,120.446 180.419,120.745 180.234 C 121.002 180.075,121.109 179.777,120.982 179.571 C 120.855 179.365,121.165 179.274,121.676 179.369 C 122.184 179.463,122.836 179.554,123.124 179.570 C 123.412 179.587,123.525 179.798,123.375 180.040 C 123.186 180.346,123.364 180.340,123.960 180.021 C 124.431 179.769,125.021 179.689,125.270 179.843 C 125.548 180.015,125.613 179.945,125.438 179.662 C 125.281 179.408,125.343 179.200,125.576 179.200 C 125.809 179.200,126.000 179.402,126.000 179.649 C 126.000 179.955,126.195 179.936,126.613 179.590 C 127.119 179.169,127.322 179.213,127.784 179.841 C 128.296 180.536,128.365 180.543,128.605 179.923 C 128.817 179.377,129.067 179.321,129.894 179.636 C 130.791 179.977,130.855 179.949,130.411 179.413 C 129.744 178.610,130.164 178.621,130.971 179.429 C 131.317 179.774,131.600 179.909,131.600 179.729 C 131.600 179.548,132.455 179.428,133.500 179.463 C 134.805 179.506,135.362 179.684,135.277 180.030 C 135.183 180.418,135.284 180.428,135.714 180.072 C 136.021 179.816,137.111 179.657,138.136 179.717 C 139.161 179.777,140.000 179.685,140.000 179.513 C 140.000 179.025,141.386 179.146,141.920 179.680 C 142.293 180.053,142.507 180.053,142.880 179.680 C 143.408 179.152,144.563 179.012,144.253 179.514 C 144.146 179.687,144.406 179.829,144.829 179.829 C 145.253 179.829,145.600 179.726,145.600 179.600 C 145.600 179.474,145.960 179.371,146.400 179.371 C 146.840 179.371,147.200 179.535,147.200 179.735 C 147.200 179.934,147.505 179.851,147.877 179.549 C 148.337 179.176,148.457 179.160,148.253 179.500 C 148.064 179.815,148.184 180.000,148.576 180.000 C 148.919 180.000,149.203 179.775,149.206 179.500 C 149.211 179.126,149.298 179.135,149.551 179.534 C 150.021 180.277,150.174 180.283,151.015 179.600 C 151.439 179.256,151.626 179.213,151.453 179.500 C 151.262 179.818,151.389 180.000,151.800 180.000 C 152.156 180.000,152.337 179.822,152.203 179.605 C 152.063 179.378,152.223 179.311,152.579 179.447 C 153.135 179.661,153.200 177.534,153.200 159.034 L 153.200 138.382 152.204 139.034 C 151.297 139.628,151.186 139.630,150.964 139.051 C 150.780 138.571,150.540 138.511,149.986 138.807 C 148.998 139.336,148.693 139.302,149.045 138.700 C 149.206 138.425,148.953 138.537,148.482 138.950 C 147.636 139.691,147.629 139.689,147.798 138.750 C 147.954 137.886,147.922 137.863,147.441 138.500 C 146.932 139.173,146.159 139.515,146.537 138.900 C 146.638 138.735,146.205 138.581,145.573 138.558 C 144.941 138.535,144.491 138.625,144.573 138.758 C 144.655 138.891,144.205 139.019,143.573 139.042 C 142.834 139.069,142.519 138.926,142.689 138.642 C 142.835 138.399,142.651 138.445,142.282 138.745 C 141.878 139.072,141.209 139.189,140.605 139.037 C 139.928 138.867,139.598 138.951,139.594 139.292 C 139.590 139.641,139.466 139.612,139.200 139.200 C 138.987 138.870,138.809 138.763,138.806 138.962 C 138.803 139.161,138.409 138.981,137.931 138.562 C 137.453 138.143,137.186 138.013,137.338 138.272 C 137.489 138.532,137.430 138.858,137.207 138.996 C 136.983 139.134,136.800 139.046,136.800 138.800 C 136.800 138.554,136.608 138.472,136.373 138.617 C 135.705 139.030,132.399 139.043,132.400 138.633 C 132.400 138.432,132.291 138.375,132.159 138.508 C 132.026 138.640,131.493 138.587,130.973 138.390 C 130.346 138.151,129.936 138.181,129.752 138.477 C 129.571 138.770,129.669 138.814,130.038 138.603 C 130.501 138.339,130.509 138.381,130.083 138.838 C 129.759 139.187,129.461 139.246,129.283 138.997 C 128.852 138.392,127.979 138.319,127.358 138.835 C 126.933 139.187,126.656 139.179,126.200 138.800 C 125.870 138.526,125.600 138.459,125.600 138.651 C 125.601 139.186,122.761 138.985,122.416 138.426 C 122.189 138.058,122.050 138.094,121.868 138.566 C 121.735 138.915,121.445 139.200,121.225 139.200 C 121.005 139.200,120.929 138.930,121.055 138.600 C 121.182 138.270,121.196 138.000,121.086 138.000 C 120.976 138.000,120.782 138.270,120.655 138.600 M242.601 138.401 C 242.842 138.792,242.705 138.868,242.063 138.701 C 241.589 138.577,241.100 138.638,240.977 138.838 C 240.854 139.037,240.538 139.197,240.276 139.194 C 239.990 139.190,240.039 139.033,240.400 138.800 C 241.265 138.241,240.181 138.275,239.125 138.840 C 238.528 139.160,238.378 139.160,238.575 138.840 C 238.725 138.598,238.657 138.400,238.424 138.400 C 238.191 138.400,237.997 138.625,237.994 138.900 C 237.989 139.268,237.897 139.257,237.644 138.858 C 237.390 138.457,236.733 139.029,235.115 141.058 C 231.478 145.622,207.142 177.327,206.453 178.400 C 206.100 178.950,205.539 179.619,205.206 179.887 C 204.720 180.278,204.872 180.299,205.974 179.994 C 206.729 179.785,207.432 179.699,207.537 179.803 C 207.641 179.908,207.968 179.793,208.263 179.548 C 208.558 179.303,208.801 179.259,208.801 179.451 C 208.803 179.878,214.413 179.913,215.072 179.490 C 215.332 179.323,215.641 179.343,215.759 179.534 C 215.999 179.922,220.902 179.808,222.300 179.381 C 222.866 179.209,223.200 179.275,223.200 179.561 C 223.200 179.840,223.568 179.923,224.156 179.775 C 224.682 179.643,225.228 179.722,225.369 179.950 C 225.655 180.413,226.840 180.092,227.294 179.429 C 227.491 179.141,227.590 179.164,227.594 179.500 C 227.597 179.775,227.791 180.000,228.024 180.000 C 228.257 180.000,228.364 179.865,228.262 179.700 C 228.160 179.535,229.392 179.400,231.000 179.400 C 232.608 179.400,233.840 179.535,233.738 179.700 C 233.636 179.865,233.844 180.000,234.200 180.000 C 234.556 180.000,234.736 179.820,234.600 179.600 C 234.462 179.377,234.761 179.203,235.276 179.206 C 236.019 179.211,236.083 179.288,235.600 179.600 C 235.270 179.813,235.195 179.991,235.433 179.994 C 235.672 179.997,235.986 179.880,236.133 179.734 C 236.637 179.230,238.431 179.223,238.149 179.727 C 237.945 180.089,238.002 180.090,238.390 179.731 C 238.669 179.473,239.148 179.359,239.454 179.476 C 239.760 179.593,240.312 179.444,240.680 179.145 C 241.267 178.668,241.316 178.689,241.079 179.321 C 240.931 179.717,240.955 179.952,241.133 179.842 C 241.311 179.732,241.893 179.560,242.428 179.460 C 242.963 179.360,243.580 179.239,243.800 179.192 C 244.774 178.981,246.025 179.236,245.801 179.599 C 245.638 179.863,245.901 179.866,246.577 179.609 C 247.241 179.356,247.600 179.357,247.600 179.610 C 247.600 179.824,247.799 180.000,248.043 180.000 C 248.295 180.000,248.373 179.708,248.226 179.322 C 248.005 178.748,248.101 178.764,248.852 179.422 C 249.339 179.850,249.606 179.975,249.445 179.700 C 249.263 179.389,249.388 179.200,249.776 179.200 C 250.119 179.200,250.400 179.402,250.400 179.649 C 250.400 179.959,250.585 179.944,251.000 179.600 C 251.330 179.326,251.600 179.236,251.600 179.400 C 251.600 179.564,251.904 179.451,252.275 179.149 C 252.866 178.668,252.917 178.687,252.687 179.300 C 252.492 179.821,252.630 180.000,253.225 180.000 C 253.665 180.000,254.122 179.747,254.241 179.438 C 254.425 178.957,254.610 178.957,255.528 179.433 C 256.172 179.768,256.653 179.832,256.733 179.595 C 256.807 179.378,257.026 179.200,257.221 179.200 C 257.416 179.200,257.464 179.515,257.329 179.900 C 256.931 181.029,257.254 180.619,269.878 164.000 C 289.448 138.234,289.029 138.836,287.914 138.147 C 287.669 137.995,287.589 138.059,287.734 138.293 C 287.875 138.522,287.633 138.803,287.195 138.917 C 286.752 139.033,286.502 138.959,286.631 138.749 C 286.988 138.173,284.721 138.693,284.295 139.286 C 284.029 139.655,283.988 139.603,284.150 139.100 C 284.418 138.266,283.838 138.179,283.121 138.947 C 282.691 139.407,282.535 139.392,282.129 138.847 C 281.748 138.334,281.494 138.294,280.904 138.654 C 280.494 138.903,279.628 139.030,278.980 138.936 C 276.401 138.561,275.798 138.615,275.906 139.213 C 275.985 139.652,275.875 139.627,275.470 139.111 C 275.111 138.654,274.602 138.496,273.964 138.643 C 272.703 138.933,272.411 138.935,271.092 138.672 C 270.450 138.543,270.081 138.608,270.215 138.825 C 270.343 139.031,270.272 139.200,270.057 139.200 C 269.842 139.200,269.576 138.975,269.465 138.700 C 269.342 138.397,269.251 138.470,269.232 138.887 C 269.211 139.327,268.985 139.492,268.602 139.346 C 268.274 139.219,268.076 139.000,268.163 138.858 C 268.251 138.716,267.793 138.562,267.147 138.515 C 266.402 138.461,266.068 138.586,266.234 138.855 C 266.419 139.154,266.264 139.155,265.710 138.859 C 265.165 138.567,264.795 138.565,264.506 138.854 C 264.218 139.142,264.008 139.136,263.822 138.835 C 263.674 138.596,263.338 138.403,263.076 138.406 C 262.786 138.410,262.834 138.572,263.200 138.823 C 263.640 139.124,263.426 139.170,262.400 138.995 C 259.827 138.558,258.604 138.536,258.100 138.918 C 257.765 139.173,257.600 139.134,257.600 138.800 C 257.600 138.407,257.471 138.409,256.988 138.810 C 256.539 139.182,256.133 139.207,255.463 138.901 C 254.899 138.645,254.300 138.624,253.901 138.847 C 253.490 139.078,253.157 139.053,252.988 138.781 C 252.818 138.505,252.520 138.611,252.156 139.076 C 251.815 139.510,251.631 139.582,251.694 139.255 C 251.818 138.618,250.156 138.224,249.797 138.806 C 249.430 139.398,248.299 139.296,248.635 138.700 C 248.856 138.309,248.804 138.305,248.397 138.681 C 248.021 139.029,247.660 139.046,247.090 138.741 C 246.658 138.510,246.407 138.488,246.534 138.693 C 246.661 138.899,246.520 139.067,246.221 139.067 C 245.900 139.067,245.765 138.806,245.892 138.433 C 246.034 138.015,245.888 138.072,245.461 138.600 C 244.926 139.263,244.752 139.303,244.444 138.835 C 244.130 138.357,243.971 138.372,243.408 138.935 C 242.598 139.745,242.119 139.820,242.770 139.036 C 243.129 138.603,243.126 138.402,242.758 138.174 C 242.432 137.973,242.381 138.046,242.601 138.401 M23.741 234.258 C 23.881 234.510,23.729 234.818,23.404 234.943 C 23.048 235.080,22.905 235.454,23.044 235.885 C 23.208 236.392,23.168 236.451,22.906 236.087 C 22.668 235.757,22.238 235.686,21.693 235.887 C 20.840 236.203,20.800 236.273,20.800 237.449 C 20.800 237.965,20.683 238.001,20.231 237.626 C 19.765 237.239,19.702 237.302,19.878 237.978 C 20.053 238.645,19.863 238.847,18.874 239.045 C 17.829 239.254,17.699 239.412,17.969 240.145 C 18.395 241.297,18.091 242.010,17.303 241.708 C 16.745 241.493,16.762 241.420,17.429 241.158 C 18.147 240.877,18.141 240.854,17.332 240.828 C 16.682 240.807,16.397 241.103,16.200 242.000 C 16.022 242.809,15.694 243.200,15.192 243.200 C 14.210 243.200,13.752 243.987,14.449 244.476 C 14.845 244.754,14.693 244.814,13.912 244.689 C 13.314 244.594,12.919 244.670,13.036 244.858 C 13.152 245.046,13.057 245.200,12.824 245.200 C 12.591 245.200,12.400 245.460,12.400 245.777 C 12.400 246.133,12.102 246.297,11.623 246.204 C 11.080 246.100,10.912 246.227,11.066 246.627 C 11.263 247.142,10.771 247.394,9.870 247.237 C 9.689 247.206,9.638 247.338,9.757 247.531 C 9.877 247.724,9.727 248.221,9.424 248.635 C 9.034 249.168,8.986 249.625,9.258 250.194 C 9.615 250.938,9.601 250.946,9.078 250.300 C 8.485 249.567,6.968 249.301,7.404 250.007 C 7.542 250.230,7.868 250.291,8.128 250.142 C 8.399 249.987,8.458 250.026,8.267 250.236 C 7.947 250.586,7.786 250.639,6.720 250.750 C 6.347 250.789,6.347 250.907,6.720 251.280 C 6.984 251.544,7.200 252.080,7.200 252.472 C 7.200 252.863,7.550 254.312,7.978 255.692 C 8.406 257.071,9.132 259.460,9.592 261.000 C 10.051 262.540,10.591 264.160,10.790 264.600 C 10.990 265.040,11.907 267.470,12.828 270.000 C 13.750 272.530,15.020 275.706,15.652 277.057 C 16.283 278.409,16.800 279.641,16.800 279.795 C 16.800 280.238,23.665 294.083,24.462 295.247 C 24.856 295.823,25.832 297.533,26.631 299.047 C 27.429 300.561,28.334 302.084,28.641 302.431 C 28.949 302.779,29.200 303.261,29.200 303.503 C 29.200 303.745,29.434 304.181,29.720 304.471 C 30.006 304.762,30.950 306.170,31.819 307.600 C 32.687 309.030,33.903 310.920,34.522 311.800 C 35.140 312.680,36.016 313.990,36.468 314.710 C 37.328 316.079,38.517 316.949,38.944 316.523 C 39.081 316.386,38.973 315.987,38.703 315.637 C 38.380 315.216,38.508 315.250,39.082 315.739 C 40.054 316.567,40.898 316.321,40.515 315.322 C 40.328 314.835,40.408 314.756,40.832 315.011 C 41.319 315.305,41.321 315.256,40.843 314.668 C 40.359 314.071,40.369 314.013,40.919 314.224 C 41.267 314.358,41.877 314.259,42.276 314.006 C 42.926 313.592,42.905 313.565,42.077 313.741 C 41.296 313.907,41.230 313.845,41.649 313.341 C 41.921 313.013,42.466 312.828,42.858 312.931 C 43.251 313.034,43.534 312.920,43.486 312.677 C 43.439 312.435,43.610 312.228,43.867 312.218 C 44.123 312.208,44.483 312.036,44.667 311.836 C 44.856 311.629,44.808 311.581,44.553 311.726 C 44.308 311.867,43.768 311.583,43.353 311.097 C 42.897 310.563,42.849 310.405,43.230 310.697 C 43.722 311.076,43.974 311.074,44.388 310.690 C 44.807 310.302,44.858 310.304,44.635 310.700 C 44.480 310.975,44.543 311.200,44.776 311.200 C 45.163 311.200,45.364 310.651,45.250 309.907 C 45.225 309.746,45.670 309.497,46.239 309.354 C 47.073 309.145,47.237 308.907,47.088 308.124 C 46.957 307.439,47.056 307.213,47.425 307.354 C 47.713 307.465,48.005 307.387,48.074 307.181 C 48.143 306.975,48.682 306.767,49.271 306.719 C 49.860 306.670,50.254 306.487,50.146 306.312 C 50.038 306.137,50.236 305.884,50.586 305.750 C 51.155 305.532,51.147 305.443,50.512 304.923 C 50.120 304.603,50.013 304.447,50.272 304.577 C 50.532 304.707,50.849 304.644,50.977 304.437 C 51.105 304.230,50.893 303.978,50.505 303.877 C 49.968 303.737,50.015 303.682,50.700 303.646 C 51.195 303.621,51.600 303.420,51.600 303.200 C 51.600 302.980,51.791 302.800,52.024 302.800 C 52.257 302.800,52.336 302.980,52.200 303.200 C 52.064 303.420,52.124 303.600,52.334 303.600 C 52.543 303.600,52.822 303.321,52.953 302.979 C 53.108 302.574,53.030 302.458,52.727 302.645 C 52.411 302.840,52.352 302.703,52.540 302.213 C 52.723 301.737,52.443 301.009,51.708 300.049 C 50.724 298.766,49.357 296.637,47.578 293.620 C 47.260 293.082,46.862 292.452,46.694 292.220 C 45.646 290.779,44.400 288.712,44.400 288.416 C 44.400 288.224,44.264 288.007,44.099 287.933 C 43.482 287.660,37.993 276.064,34.190 267.000 C 30.851 259.041,27.969 249.727,25.712 239.600 C 25.148 237.070,24.416 234.730,24.087 234.400 C 23.757 234.070,23.602 234.006,23.741 234.258 " stroke="none" fill="#04edb4" fill-rule="evenodd"></path><path id="path7" d="M112.597 195.800 C 112.597 255.420,112.643 279.750,112.700 249.868 C 112.757 219.985,112.757 171.205,112.700 141.468 C 112.643 111.730,112.597 136.180,112.597 195.800 M153.393 180.000 C 153.393 202.550,153.441 211.775,153.500 200.500 C 153.559 189.225,153.559 170.775,153.500 159.500 C 153.441 148.225,153.393 157.450,153.393 180.000 " stroke="none" fill="#69f6c1" fill-rule="evenodd"></path><path id="path8" d="M124.327 307.900 C 129.237 307.963,137.157 307.963,141.927 307.900 C 146.697 307.836,142.680 307.784,133.000 307.784 C 123.320 307.784,119.417 307.836,124.327 307.900 M274.500 307.900 C 280.385 307.962,290.015 307.962,295.900 307.900 C 301.785 307.837,296.970 307.786,285.200 307.786 C 273.430 307.786,268.615 307.837,274.500 307.900 " stroke="none" fill="#94fcc4" fill-rule="evenodd"></path></g></svg>